REM MD5 26a1cffd9b03fd3a9647fb38385c5145
FILE "Ultima Underworld - The Stygian Abyss (Japan).bin" BINARY
  TRACK 01 MODE2/2352
    INDEX 01 00:00:00
  TRACK 02 AUDIO
    INDEX 00 32:28:22
    INDEX 01 32:31:22
  TRACK 03 AUDIO
    INDEX 00 35:35:46
    INDEX 01 35:38:46
  TRACK 04 AUDIO
    INDEX 00 38:00:47
    INDEX 01 38:03:47
REM LEADOUT 41:13:64
